<svg width="170"  viewBox="0 0 413 119" fill="none" xmlns="http://www.w3.org/2000/svg">
<path d="M145.032 92.768C141.448 92.768 138.013 92.2987 134.728 91.36C131.443 90.3787 128.797 89.12 126.792 87.584L130.312 79.776C132.232 81.1413 134.493 82.272 137.096 83.168C139.741 84.0213 142.408 84.448 145.096 84.448C147.144 84.448 148.787 84.256 150.024 83.872C151.304 83.4453 152.243 82.8693 152.84 82.144C153.437 81.4187 153.736 80.5867 153.736 79.648C153.736 78.4533 153.267 77.5147 152.328 76.832C151.389 76.1067 150.152 75.5307 148.616 75.104C147.08 74.6347 145.373 74.208 143.496 73.824C141.661 73.3973 139.805 72.8853 137.928 72.288C136.093 71.6907 134.408 70.9227 132.872 69.984C131.336 69.0453 130.077 67.808 129.096 66.272C128.157 64.736 127.688 62.7733 127.688 60.384C127.688 57.824 128.371 55.4987 129.736 53.408C131.144 51.2747 133.235 49.5893 136.008 48.352C138.824 47.072 142.344 46.432 146.568 46.432C149.384 46.432 152.157 46.7733 154.888 47.456C157.619 48.096 160.029 49.0773 162.12 50.4L158.92 58.272C156.829 57.0773 154.739 56.2027 152.648 55.648C150.557 55.0507 148.509 54.752 146.504 54.752C144.499 54.752 142.856 54.9867 141.576 55.456C140.296 55.9253 139.379 56.544 138.824 57.312C138.269 58.0373 137.992 58.8907 137.992 59.872C137.992 61.024 138.461 61.9627 139.4 62.688C140.339 63.3707 141.576 63.9253 143.112 64.352C144.648 64.7787 146.333 65.2053 148.168 65.632C150.045 66.0587 151.901 66.5493 153.736 67.104C155.613 67.6587 157.32 68.4053 158.856 69.344C160.392 70.2827 161.629 71.52 162.568 73.056C163.549 74.592 164.04 76.5333 164.04 78.88C164.04 81.3973 163.336 83.7013 161.928 85.792C160.52 87.8827 158.408 89.568 155.592 90.848C152.819 92.128 149.299 92.768 145.032 92.768ZM191.349 57.056C194.079 57.056 196.511 57.6107 198.645 58.72C200.821 59.7867 202.527 61.4507 203.765 63.712C205.002 65.9307 205.621 68.7893 205.621 72.288V92H195.637V73.824C195.637 71.0507 195.018 69.0027 193.781 67.68C192.586 66.3573 190.879 65.696 188.661 65.696C187.082 65.696 185.653 66.0373 184.373 66.72C183.135 67.36 182.154 68.3627 181.429 69.728C180.746 71.0933 180.405 72.8427 180.405 74.976V92H170.421V44.512H180.405V67.104L178.165 64.224C179.402 61.92 181.173 60.1493 183.477 58.912C185.781 57.6747 188.405 57.056 191.349 57.056ZM231.305 92.512C227.635 92.512 224.371 91.744 221.513 90.208C218.697 88.672 216.457 86.5813 214.793 83.936C213.171 81.248 212.361 78.1973 212.361 74.784C212.361 71.328 213.171 68.2773 214.793 65.632C216.457 62.944 218.697 60.8533 221.513 59.36C224.371 57.824 227.635 57.056 231.305 57.056C234.931 57.056 238.174 57.824 241.033 59.36C243.891 60.8533 246.131 62.9227 247.753 65.568C249.374 68.2133 250.185 71.2853 250.185 74.784C250.185 78.1973 249.374 81.248 247.753 83.936C246.131 86.5813 243.891 88.672 241.033 90.208C238.174 91.744 234.931 92.512 231.305 92.512ZM231.305 84.32C232.969 84.32 234.462 83.936 235.785 83.168C237.107 82.4 238.153 81.312 238.921 79.904C239.689 78.4533 240.073 76.7467 240.073 74.784C240.073 72.7787 239.689 71.072 238.921 69.664C238.153 68.256 237.107 67.168 235.785 66.4C234.462 65.632 232.969 65.248 231.305 65.248C229.641 65.248 228.147 65.632 226.825 66.4C225.502 67.168 224.435 68.256 223.625 69.664C222.857 71.072 222.473 72.7787 222.473 74.784C222.473 76.7467 222.857 78.4533 223.625 79.904C224.435 81.312 225.502 82.4 226.825 83.168C228.147 83.936 229.641 84.32 231.305 84.32ZM256.858 92V57.568H266.394V67.296L265.05 64.48C266.074 62.048 267.717 60.2133 269.978 58.976C272.239 57.696 274.991 57.056 278.234 57.056V66.272C277.807 66.2293 277.423 66.208 277.082 66.208C276.741 66.1653 276.378 66.144 275.994 66.144C273.263 66.144 271.045 66.9333 269.338 68.512C267.674 70.048 266.842 72.4587 266.842 75.744V92H256.858ZM299.438 92.512C295.385 92.512 292.227 91.488 289.966 89.44C287.705 87.3493 286.574 84.256 286.574 80.16V49.952H296.558V80.032C296.558 81.4827 296.942 82.6133 297.71 83.424C298.478 84.192 299.523 84.576 300.846 84.576C302.425 84.576 303.769 84.1493 304.878 83.296L307.566 90.336C306.542 91.0613 305.305 91.616 303.854 92C302.446 92.3413 300.974 92.512 299.438 92.512ZM281.262 66.016V58.336H305.134V66.016H281.262ZM329.196 92.512C325.271 92.512 321.815 91.744 318.828 90.208C315.884 88.672 313.601 86.5813 311.98 83.936C310.359 81.248 309.548 78.1973 309.548 74.784C309.548 71.328 310.337 68.2773 311.916 65.632C313.537 62.944 315.735 60.8533 318.508 59.36C321.281 57.824 324.417 57.056 327.916 57.056C331.287 57.056 334.316 57.7813 337.004 59.232C339.735 60.64 341.889 62.688 343.468 65.376C345.047 68.0213 345.836 71.2 345.836 74.912C345.836 75.296 345.815 75.744 345.772 76.256C345.729 76.7253 345.687 77.1733 345.644 77.6H317.676V71.776H340.396L336.556 73.504C336.556 71.712 336.193 70.1547 335.468 68.832C334.743 67.5093 333.74 66.4853 332.46 65.76C331.18 64.992 329.687 64.608 327.98 64.608C326.273 64.608 324.759 64.992 323.436 65.76C322.156 66.4853 321.153 67.5307 320.428 68.896C319.703 70.2187 319.34 71.7973 319.34 73.632V75.168C319.34 77.0453 319.745 78.7093 320.556 80.16C321.409 81.568 322.583 82.656 324.076 83.424C325.612 84.1493 327.404 84.512 329.452 84.512C331.287 84.512 332.887 84.2347 334.252 83.68C335.66 83.1253 336.94 82.2933 338.092 81.184L343.404 86.944C341.825 88.736 339.841 90.1227 337.452 91.104C335.063 92.0427 332.311 92.512 329.196 92.512ZM347.194 92L362.618 71.776L362.426 77.28L347.642 57.568H358.842L368.186 70.432L363.962 70.56L373.626 57.568H384.25L369.402 77.088V71.712L384.762 92H373.434L363.642 78.304L367.802 78.88L358.074 92H347.194ZM403.688 92.512C399.635 92.512 396.477 91.488 394.216 89.44C391.955 87.3493 390.824 84.256 390.824 80.16V49.952H400.808V80.032C400.808 81.4827 401.192 82.6133 401.96 83.424C402.728 84.192 403.773 84.576 405.096 84.576C406.675 84.576 408.019 84.1493 409.128 83.296L411.816 90.336C410.792 91.0613 409.555 91.616 408.104 92C406.696 92.3413 405.224 92.512 403.688 92.512ZM385.512 66.016V58.336H409.384V66.016H385.512Z" fill="black"/>
<path fill-rule="evenodd" clip-rule="evenodd" d="M50 119C77.6142 119 100 96.6142 100 69C100 41.3858 77.6142 19 50 19C22.3858 19 0 41.3858 0 69C0 96.6142 22.3858 119 50 119ZM33.592 103.04C38.52 104.448 43.672 105.152 49.048 105.152C55.448 105.152 60.728 104.192 64.888 102.272C69.112 100.352 72.28 97.824 74.392 94.688C76.504 91.552 77.56 88.096 77.56 84.32C77.56 80.8 76.824 77.888 75.352 75.584C73.944 73.28 72.088 71.424 69.784 70.016C67.48 68.608 64.92 67.488 62.104 66.656C59.352 65.824 56.568 65.088 53.752 64.448C51 63.808 48.472 63.168 46.168 62.528C43.864 61.888 42.008 61.056 40.6 60.032C39.192 58.944 38.488 57.536 38.488 55.808C38.488 54.336 38.904 53.056 39.736 51.968C40.568 50.816 41.944 49.888 43.864 49.184C45.784 48.48 48.248 48.128 51.256 48.128C54.264 48.128 57.336 48.576 60.472 49.472C63.608 50.304 66.744 51.616 69.88 53.408L74.68 41.6C71.544 39.616 67.928 38.144 63.832 37.184C59.736 36.16 55.576 35.648 51.352 35.648C45.016 35.648 39.736 36.608 35.512 38.528C31.352 40.384 28.216 42.912 26.104 46.112C24.056 49.248 23.032 52.736 23.032 56.576C23.032 60.16 23.736 63.104 25.144 65.408C26.616 67.712 28.504 69.568 30.808 70.976C33.112 72.384 35.64 73.536 38.392 74.432C41.208 75.328 43.992 76.096 46.744 76.736C49.56 77.312 52.12 77.952 54.424 78.656C56.728 79.296 58.584 80.16 59.992 81.248C61.4 82.272 62.104 83.68 62.104 85.472C62.104 86.88 61.656 88.128 60.76 89.216C59.864 90.304 58.456 91.168 56.536 91.808C54.68 92.384 52.216 92.672 49.144 92.672C45.112 92.672 41.112 92.032 37.144 90.752C33.24 89.408 29.848 87.712 26.968 85.664L21.688 97.376C24.696 99.68 28.664 101.568 33.592 103.04Z" fill="green"/>
<path d="M102.465 19.9741C105.498 19.4403 107.971 22.3897 106.917 25.2828L97.1336 52.135C96.0796 55.0281 92.2888 55.6953 90.3103 53.3358L71.9473 31.4372C69.9688 29.0777 71.2864 25.4613 74.319 24.9276L102.465 19.9741Z" fill="green"/>
</svg>
